<svg width="30" height="30" viewBox="0 0 30 30" fill="none" xmlns="http://www.w3.org/2000/svg">
<g opacity="0.3">
<path fill-rule="evenodd" clip-rule="evenodd" d="M17.6611 4.50209V5.40586V6.20921C17.6611 6.51046 17.5607 6.7113 17.2594 6.7113C16.9582 6.7113 16.7573 6.51046 16.7573 6.20921V4.40167C16.7573 4.20084 16.9582 4 17.2594 4C17.4603 4 17.6611 4.20084 17.6611 4.50209ZM13.8452 7.11299C14.046 7.31383 13.7448 7.7155 13.4435 7.7155C13.2427 7.7155 13.1423 7.7155 13.0418 7.51467C12.841 7.31383 12.7406 7.01258 12.6402 6.71132L12.6402 6.71132C12.5186 6.5897 12.4338 6.43126 12.3412 6.2583C12.2809 6.14563 12.2173 6.0268 12.1381 5.90797C12.0377 5.70714 12.0377 5.40588 12.3389 5.30546C12.5397 5.20504 12.7406 5.20504 12.841 5.40588C13.2427 6.00839 13.5439 6.51048 13.8452 7.11299ZM21.8787 5.30554C21.6778 5.30554 21.5774 5.40596 21.477 5.50638C21.1757 6.00847 20.8745 6.51056 20.5732 7.11307C20.4728 7.31391 20.5732 7.61517 20.7741 7.71558C20.9749 7.816 21.2762 7.816 21.3766 7.51475C21.7782 7.01266 22.0795 6.51056 22.2803 6.00847C22.4812 5.6068 22.2803 5.30554 21.8787 5.30554ZM25.6946 14.3432H26.4979C26.7992 14.3432 27 14.1423 27 13.8411C27 13.5398 26.7992 13.339 26.4979 13.339H24.7908C24.4895 13.339 24.2887 13.5398 24.2887 13.8411C24.2887 14.1423 24.4895 14.3432 24.7908 14.3432H25.6946ZM25.2929 8.7196C25.1925 8.7196 25.0921 8.7196 25.0921 8.82002C24.59 9.12128 24.0879 9.42253 23.5858 9.62337C23.2845 9.82421 23.1841 10.025 23.3849 10.3263C23.4854 10.5271 23.7866 10.6276 24.0879 10.4267L25.5941 9.52295C25.795 9.42253 25.8954 9.2217 25.795 9.02086C25.795 8.82002 25.5941 8.7196 25.2929 8.7196ZM23.3849 17.456C23.4854 17.2552 23.5858 17.1548 23.7866 17.1548C23.8201 17.1548 23.8536 17.1659 23.887 17.1771C23.954 17.1994 24.0209 17.2217 24.0879 17.1548C24.3389 17.3054 24.6151 17.456 24.8912 17.6067C25.1674 17.7573 25.4435 17.9079 25.6946 18.0586C25.8954 18.159 25.8954 18.4602 25.795 18.6611C25.6946 18.8619 25.3933 18.9623 25.1925 18.8619C25.1423 18.8619 25.1172 18.8368 25.0921 18.8117C25.067 18.7866 25.0418 18.7615 24.9916 18.7615C24.7406 18.6109 24.5147 18.4853 24.2887 18.3598C24.0628 18.2343 23.8368 18.1088 23.5858 17.9581C23.3849 17.8577 23.2845 17.6569 23.3849 17.456ZM11.1339 10.1256C11.1339 9.92471 11.0335 9.8243 10.8326 9.72388C10.3305 9.3222 9.82845 9.02095 9.32636 8.71969C9.12552 8.61927 8.82426 8.71969 8.72385 8.92053C8.52301 9.12137 8.62343 9.42262 8.82426 9.52304L10.3305 10.4268C10.7322 10.6276 11.1339 10.4268 11.1339 10.1256ZM11.9372 14.4436C11.3347 14.0419 10.6318 13.8411 9.82845 13.8411C8.4226 13.8411 7.41841 14.4436 6.61506 15.5482C5.81172 16.6528 5.61088 17.8578 6.01255 19.0628C6.01255 19.2637 6.01255 19.2637 5.81172 19.3641C4.1046 19.6653 3 21.0712 3 22.7783C3 24.385 4.20502 25.8913 5.81172 26.0921C5.90199 26.0921 5.99226 26.1124 6.09166 26.1347H6.09166C6.21339 26.1621 6.3488 26.1925 6.51464 26.1925H19.2678C21.2762 26.1925 23.0837 24.7867 23.3849 22.5775C23.6862 20.5691 22.4812 18.862 20.7741 18.1591C20.6736 18.1591 20.3724 18.0586 20.272 17.9582C19.6695 17.8578 19.0669 17.7574 18.4644 17.9582C18.2636 17.9582 18.1632 17.9582 18.0628 17.7574C17.8619 17.0545 17.3598 16.5524 16.7573 16.1507C15.7531 15.5482 14.749 15.5482 13.7448 16.0503C13.7113 16.0503 13.6778 16.0614 13.6444 16.0726C13.5774 16.0949 13.5105 16.1172 13.4435 16.0503C13.1423 15.3473 12.6402 14.8452 11.9372 14.4436ZM13.0418 12.7364L12.9414 12.636C12.6402 12.5356 12.4393 12.4352 12.2385 12.2343C13.0418 9.82427 15.4519 8.21758 18.0628 8.61925C21.3766 9.12135 23.3849 12.636 22.1799 15.749C22.1297 15.8494 22.0544 15.9749 21.9791 16.1004C21.9038 16.2259 21.8285 16.3515 21.7782 16.4519C21.6778 16.3515 21.5774 16.2511 21.477 16.2511C21.3593 16.2511 21.1728 16.1821 21.0182 16.125C20.9089 16.0847 20.8157 16.0502 20.7741 16.0502C20.272 15.9498 19.7699 15.8494 19.3682 15.8494C18.9665 15.2469 18.4644 14.8452 17.8619 14.4435C17.0586 13.9414 16.1548 13.7406 15.251 13.7406C15.1004 13.7406 14.9749 13.7657 14.8494 13.7908C14.7239 13.8159 14.5983 13.841 14.4477 13.841C14.046 13.4393 13.5439 13.0377 13.0418 12.7364Z" fill="#232968"/>
</g>
</svg>
